# xmcd CD database file
#
# Track frame offsets:
#	150
#	21192
#	42150
#	63110
#
# Disc length: 1119 seconds
#
# Revision: 2
# Processed by: cddbd v1.5PL3 Copyright (c) Steve Scherf et al.
# Submitted via: CDex 1.50beta9
#
DISCID=28045d04
DTITLE=安室 奈美恵 - Don't Wanna Cry
DYEAR=1996
DGENRE=J-POP
TTITLE0=Don't Wanna Cry (Radio Edit)
TTITLE1=present
TTITLE2=Don't Wanna Cry (Original Karaoke)
TTITLE3=present (Original Karaoke)
EXTD=YEAR: 1996
EXTT0=
EXTT1=
EXTT2=
EXTT3=
PLAYORDER=
